<mxfile host="Electron" agent="Mozilla/5.0 (X11; Linux x86_64) AppleWebKit/537.36 (KHTML, like Gecko) draw.io/26.2.2 Chrome/134.0.6998.178 Electron/35.1.2 Safari/537.36" version="26.2.2">
  <diagram name="Page-1" id="fqr8Yv4XvI-oO5mWE29O">
    <mxGraphModel dx="1171" dy="594" grid="1" gridSize="10" guides="1" tooltips="1" connect="1" arrows="1" fold="1" page="1" pageScale="1" pageWidth="850" pageHeight="1100" math="0" shadow="0">
      <root>
        <mxCell id="0" />
        <mxCell id="1" parent="0" />
        <mxCell id="nDKpwrWWqsDWI-ISRtpq-1" style="edgeStyle=orthogonalEdgeStyle;rounded=0;orthogonalLoop=1;jettySize=auto;html=1;exitX=1;exitY=0.5;exitDx=0;exitDy=0;entryX=0;entryY=0.5;entryDx=0;entryDy=0;" edge="1" parent="1" source="y7aGNx3RBrHRcViogRkv-4" target="y7aGNx3RBrHRcViogRkv-5">
          <mxGeometry relative="1" as="geometry" />
        </mxCell>
        <mxCell id="nDKpwrWWqsDWI-ISRtpq-4" style="edgeStyle=orthogonalEdgeStyle;rounded=0;orthogonalLoop=1;jettySize=auto;html=1;exitX=1;exitY=0.5;exitDx=0;exitDy=0;entryX=0;entryY=0.25;entryDx=0;entryDy=0;" edge="1" parent="1" source="y7aGNx3RBrHRcViogRkv-4" target="nDKpwrWWqsDWI-ISRtpq-3">
          <mxGeometry relative="1" as="geometry" />
        </mxCell>
        <mxCell id="nDKpwrWWqsDWI-ISRtpq-6" style="edgeStyle=orthogonalEdgeStyle;rounded=0;orthogonalLoop=1;jettySize=auto;html=1;exitX=1;exitY=0.5;exitDx=0;exitDy=0;entryX=0;entryY=0.25;entryDx=0;entryDy=0;" edge="1" parent="1" source="y7aGNx3RBrHRcViogRkv-4" target="y7aGNx3RBrHRcViogRkv-7">
          <mxGeometry relative="1" as="geometry" />
        </mxCell>
        <mxCell id="y7aGNx3RBrHRcViogRkv-4" value="Catalog&lt;div&gt;NIST 800-53 rev4&lt;/div&gt;" style="rounded=0;whiteSpace=wrap;html=1;fillColor=#D5E8D4;" parent="1" vertex="1">
          <mxGeometry x="40" y="80" width="120" height="60" as="geometry" />
        </mxCell>
        <mxCell id="nDKpwrWWqsDWI-ISRtpq-7" style="edgeStyle=orthogonalEdgeStyle;rounded=0;orthogonalLoop=1;jettySize=auto;html=1;exitX=1;exitY=0.5;exitDx=0;exitDy=0;entryX=0;entryY=0.75;entryDx=0;entryDy=0;" edge="1" parent="1" source="y7aGNx3RBrHRcViogRkv-5" target="y7aGNx3RBrHRcViogRkv-7">
          <mxGeometry relative="1" as="geometry" />
        </mxCell>
        <mxCell id="nDKpwrWWqsDWI-ISRtpq-13" style="edgeStyle=orthogonalEdgeStyle;rounded=0;orthogonalLoop=1;jettySize=auto;html=1;exitX=1;exitY=0.75;exitDx=0;exitDy=0;entryX=0;entryY=0.5;entryDx=0;entryDy=0;" edge="1" parent="1" source="y7aGNx3RBrHRcViogRkv-5" target="nDKpwrWWqsDWI-ISRtpq-12">
          <mxGeometry relative="1" as="geometry" />
        </mxCell>
        <mxCell id="y7aGNx3RBrHRcViogRkv-5" value="Profile&lt;div&gt;Harmonized v1.0&lt;/div&gt;" style="rounded=0;whiteSpace=wrap;html=1;fillColor=#FFFFCC;" parent="1" vertex="1">
          <mxGeometry x="200" y="140" width="120" height="60" as="geometry" />
        </mxCell>
        <mxCell id="nDKpwrWWqsDWI-ISRtpq-17" style="edgeStyle=orthogonalEdgeStyle;rounded=0;orthogonalLoop=1;jettySize=auto;html=1;exitX=1;exitY=0.5;exitDx=0;exitDy=0;entryX=0;entryY=0.25;entryDx=0;entryDy=0;" edge="1" parent="1" source="y7aGNx3RBrHRcViogRkv-7" target="nDKpwrWWqsDWI-ISRtpq-16">
          <mxGeometry relative="1" as="geometry" />
        </mxCell>
        <mxCell id="y7aGNx3RBrHRcViogRkv-7" value="&lt;font style=&quot;font-size: 11px;&quot;&gt;Mapping Collection&lt;/font&gt;&lt;div&gt;&lt;font style=&quot;font-size: 11px;&quot;&gt;NIST 800-54 rev4&lt;/font&gt;&lt;/div&gt;&lt;div&gt;&lt;font style=&quot;font-size: 11px;&quot;&gt;to&lt;/font&gt;&lt;/div&gt;&lt;div&gt;&lt;font style=&quot;font-size: 11px;&quot;&gt;Harmonized Profile v1.0&lt;/font&gt;&lt;/div&gt;" style="rounded=0;whiteSpace=wrap;html=1;fillColor=#CCE5FF;" parent="1" vertex="1">
          <mxGeometry x="360" y="80" width="120" height="60" as="geometry" />
        </mxCell>
        <mxCell id="nDKpwrWWqsDWI-ISRtpq-8" style="edgeStyle=orthogonalEdgeStyle;rounded=0;orthogonalLoop=1;jettySize=auto;html=1;exitX=1;exitY=0.25;exitDx=0;exitDy=0;entryX=0;entryY=0.75;entryDx=0;entryDy=0;" edge="1" parent="1" source="nDKpwrWWqsDWI-ISRtpq-2" target="nDKpwrWWqsDWI-ISRtpq-3">
          <mxGeometry relative="1" as="geometry" />
        </mxCell>
        <mxCell id="nDKpwrWWqsDWI-ISRtpq-10" style="edgeStyle=orthogonalEdgeStyle;rounded=0;orthogonalLoop=1;jettySize=auto;html=1;exitX=1;exitY=0.75;exitDx=0;exitDy=0;entryX=0;entryY=0.75;entryDx=0;entryDy=0;" edge="1" parent="1" source="nDKpwrWWqsDWI-ISRtpq-2" target="nDKpwrWWqsDWI-ISRtpq-9">
          <mxGeometry relative="1" as="geometry" />
        </mxCell>
        <mxCell id="nDKpwrWWqsDWI-ISRtpq-2" value="Catalog&lt;div&gt;PCI DSS v4.0&lt;/div&gt;" style="rounded=0;whiteSpace=wrap;html=1;fillColor=#D5E8D4;" vertex="1" parent="1">
          <mxGeometry x="40" y="250" width="120" height="60" as="geometry" />
        </mxCell>
        <mxCell id="nDKpwrWWqsDWI-ISRtpq-11" style="edgeStyle=orthogonalEdgeStyle;rounded=0;orthogonalLoop=1;jettySize=auto;html=1;exitX=1;exitY=0.5;exitDx=0;exitDy=0;entryX=0;entryY=0.25;entryDx=0;entryDy=0;" edge="1" parent="1" source="nDKpwrWWqsDWI-ISRtpq-3" target="nDKpwrWWqsDWI-ISRtpq-9">
          <mxGeometry relative="1" as="geometry" />
        </mxCell>
        <mxCell id="nDKpwrWWqsDWI-ISRtpq-15" style="edgeStyle=orthogonalEdgeStyle;rounded=0;orthogonalLoop=1;jettySize=auto;html=1;exitX=1;exitY=0.25;exitDx=0;exitDy=0;entryX=0;entryY=0.5;entryDx=0;entryDy=0;" edge="1" parent="1" source="nDKpwrWWqsDWI-ISRtpq-3" target="nDKpwrWWqsDWI-ISRtpq-14">
          <mxGeometry relative="1" as="geometry" />
        </mxCell>
        <mxCell id="nDKpwrWWqsDWI-ISRtpq-3" value="Profile&lt;div&gt;Harmonized v1.1&lt;/div&gt;" style="rounded=0;whiteSpace=wrap;html=1;fillColor=#FFFFCC;" vertex="1" parent="1">
          <mxGeometry x="200" y="210" width="120" height="60" as="geometry" />
        </mxCell>
        <mxCell id="nDKpwrWWqsDWI-ISRtpq-21" style="edgeStyle=orthogonalEdgeStyle;rounded=0;orthogonalLoop=1;jettySize=auto;html=1;exitX=1;exitY=0.5;exitDx=0;exitDy=0;entryX=0;entryY=0.75;entryDx=0;entryDy=0;" edge="1" parent="1" source="nDKpwrWWqsDWI-ISRtpq-9" target="nDKpwrWWqsDWI-ISRtpq-19">
          <mxGeometry relative="1" as="geometry" />
        </mxCell>
        <mxCell id="nDKpwrWWqsDWI-ISRtpq-9" value="&lt;font style=&quot;font-size: 11px;&quot;&gt;Mapping Collection&lt;/font&gt;&lt;div&gt;&lt;font style=&quot;font-size: 11px;&quot;&gt;PCI DSS v4.0&lt;/font&gt;&lt;/div&gt;&lt;div&gt;&lt;font style=&quot;font-size: 11px;&quot;&gt;to&lt;/font&gt;&lt;/div&gt;&lt;div&gt;&lt;font style=&quot;font-size: 11px;&quot;&gt;Harmonized Profile v1.1&lt;/font&gt;&lt;/div&gt;" style="rounded=0;whiteSpace=wrap;html=1;fillColor=#CCE5FF;" vertex="1" parent="1">
          <mxGeometry x="360" y="280" width="120" height="60" as="geometry" />
        </mxCell>
        <mxCell id="nDKpwrWWqsDWI-ISRtpq-18" style="edgeStyle=orthogonalEdgeStyle;rounded=0;orthogonalLoop=1;jettySize=auto;html=1;exitX=1;exitY=0.5;exitDx=0;exitDy=0;entryX=0;entryY=0.75;entryDx=0;entryDy=0;" edge="1" parent="1" source="nDKpwrWWqsDWI-ISRtpq-12" target="nDKpwrWWqsDWI-ISRtpq-16">
          <mxGeometry relative="1" as="geometry" />
        </mxCell>
        <mxCell id="nDKpwrWWqsDWI-ISRtpq-12" value="&lt;font style=&quot;font-size: 11px;&quot;&gt;Component Definition&lt;/font&gt;&lt;div&gt;&lt;font style=&quot;font-size: 11px;&quot;&gt;for&lt;/font&gt;&lt;/div&gt;&lt;div&gt;&lt;font style=&quot;font-size: 11px;&quot;&gt;Harmonized Profile v1.0&lt;/font&gt;&lt;/div&gt;" style="rounded=0;whiteSpace=wrap;html=1;fillColor=#E5CCFF;" vertex="1" parent="1">
          <mxGeometry x="520" y="140" width="120" height="60" as="geometry" />
        </mxCell>
        <mxCell id="nDKpwrWWqsDWI-ISRtpq-20" style="edgeStyle=orthogonalEdgeStyle;rounded=0;orthogonalLoop=1;jettySize=auto;html=1;exitX=1;exitY=0.5;exitDx=0;exitDy=0;entryX=0;entryY=0.25;entryDx=0;entryDy=0;" edge="1" parent="1" source="nDKpwrWWqsDWI-ISRtpq-14" target="nDKpwrWWqsDWI-ISRtpq-19">
          <mxGeometry relative="1" as="geometry" />
        </mxCell>
        <mxCell id="nDKpwrWWqsDWI-ISRtpq-14" value="&lt;font style=&quot;font-size: 11px;&quot;&gt;Component Definition&lt;/font&gt;&lt;div&gt;&lt;font style=&quot;font-size: 11px;&quot;&gt;for&lt;/font&gt;&lt;/div&gt;&lt;div&gt;&lt;font style=&quot;font-size: 11px;&quot;&gt;Harmonized Profile v1.1&lt;/font&gt;&lt;/div&gt;" style="rounded=0;whiteSpace=wrap;html=1;fillColor=#E5CCFF;" vertex="1" parent="1">
          <mxGeometry x="520" y="210" width="120" height="60" as="geometry" />
        </mxCell>
        <mxCell id="nDKpwrWWqsDWI-ISRtpq-16" value="Component Definition&lt;div&gt;for&lt;/div&gt;&lt;div&gt;NIST 800-53 rev4&lt;/div&gt;" style="rounded=0;whiteSpace=wrap;html=1;fillColor=#E5CCFF;" vertex="1" parent="1">
          <mxGeometry x="680" y="80" width="120" height="60" as="geometry" />
        </mxCell>
        <mxCell id="nDKpwrWWqsDWI-ISRtpq-19" value="Component Definition&lt;div&gt;for&lt;/div&gt;&lt;div&gt;PCI DSS v.40&lt;/div&gt;" style="rounded=0;whiteSpace=wrap;html=1;fillColor=#E5CCFF;" vertex="1" parent="1">
          <mxGeometry x="680" y="280" width="120" height="60" as="geometry" />
        </mxCell>
      </root>
    </mxGraphModel>
  </diagram>
</mxfile>
